<?xml version="1.0" encoding="UTF-8"?>
<svg id="Layer_2" xmlns="http://www.w3.org/2000/svg" version="1.1" viewBox="0 0 172.35 145.67">
  <!-- Generator: Adobe Illustrator 30.1.0, SVG Export Plug-In . SVG Version: 2.1.1 Build 136)  -->
  <defs>
    <style>
      .st0 {
        fill: #231f20;
      }
    </style>
  </defs>
  <g id="Layer_1-2">
    <path class="st0" d="M84.8,129.85l2.54,11.19c.6,2.63,3.04,4.04,5.87,3.39l41.08-9.48c21.02-4.85,38.06-25.83,38.06-46.84h0c0-9.84-3.73-17.94-9.86-23.29,6.13-8.17,9.86-18,9.86-27.84h0c0-21.02-17.04-34.12-38.06-29.27l-42.09,9.72c-2.24.52-4.18-.6-4.65-2.68l-2.54-11.19c-.6-2.63-3.04-4.04-5.87-3.39L0,18.43v127.24l80.14-18.5c2.24-.52,4.18.6,4.65,2.68h.01ZM24.99,114.91v-26.13l55.15-12.73c2.24-.52,4.18.6,4.65,2.68l2.54,11.19c.6,2.63,3.04,4.04,5.87,3.39l40.71-9.4c7.04-1.62,13.09,2.38,13.42,9.34.35,7.42-5.63,15-13.05,16.71l-42.09,9.72c-2.24.52-4.18-.6-4.65-2.68l-2.54-11.19c-.6-2.63-3.04-4.04-5.87-3.39l-54.14,12.5v-.01ZM79.14,51.28l-54.14,12.5v-26.13l55.15-12.73c2.24-.52,4.18.6,4.65,2.68l2.54,11.19c.6,2.63,3.04,4.04,5.87,3.39l40.71-9.4c7.04-1.62,13.09,2.38,13.42,9.34.35,7.42-5.63,15-13.05,16.71l-42.09,9.72c-2.24.52-4.18-.6-4.65-2.68l-2.54-11.19c-.6-2.63-3.04-4.04-5.87-3.39v-.01Z"/>
  </g>
</svg>